<svg width="212" height="33" viewBox="0 0 212 33" fill="none" xmlns="http://www.w3.org/2000/svg">
<path d="M3.25208 2.84783L3.35295 1.87947L4.29995 1.75842L7.02939 3.6987L6.77544 5.00409L5.33832 5.45504L3.25208 2.84783Z" fill="#00D26A"/>
<path d="M7.1766 7.75255L5.33838 5.45507L7.02826 3.69873L9.43255 5.40879L8.73713 6.90286L7.1766 7.75255Z" fill="#468CFB"/>
<path d="M4.3142 1.76794L3.26277 2.85972L1.43997 0.58122C1.18245 0.25962 1.58831 -0.169971 1.92415 0.0697454L4.3142 1.76794Z" fill="#F9C23C"/>
<path d="M9.37074 5.36487L12.5227 7.60657C13.8079 10.7478 11.26 11.2201 9.82643 11.0635L7.12903 7.69321L9.37192 5.36487H9.37074Z" fill="#8D65C5"/>
<path d="M10.4934 5.34121C11.94 3.4389 18.3945 2.34 14.775 5.85268C12.6271 7.9413 13.5242 10.1628 10.7711 11.3496C6.13575 13.1106 4.78289 9.30959 5.2647 8.82778C5.74651 8.34597 6.82761 9.37723 8.13893 8.82778C8.95302 8.48601 9.04677 7.24351 10.4934 5.34121Z" fill="#5092FF"/>
<path d="M3.71011 25.0038L13.9396 22.7728C14.1164 22.7301 14.2944 22.6814 14.4736 22.6268C10.2489 27.4698 9.71964 32.8765 9.71964 32.8765H27.912C30.4516 32.8765 32.4453 30.4058 32.2079 27.8662C31.4983 20.3673 28.9029 6.56344 19.357 6.46969C17.4499 5.01715 15.2426 4.66588 13.9147 5.99263C9.85967 10.0488 6.0515 14.2712 3.4787 17.124C2.67885 18.0117 1.99886 18.7664 1.46721 19.3432C-0.77568 21.7748 -0.253526 23.7696 1.72829 24.7784C2.33352 25.0869 3.04555 25.1462 3.71011 25.0038Z" fill="#EFD5FF"/>
<path d="M32.3361 17.4315C32.3361 13.0916 29.5794 12.4366 28.5173 12.4615C28.751 13.4014 28.8495 16.3776 27.3661 20.7685C25.8827 25.1593 27.1074 30.8188 27.9251 32.8956C31.0948 32.8956 32.3373 32.4873 32.3373 30.1887V17.4315H32.3361Z" fill="#FF6DC6"/>
<path d="M29.3324 17.8017C30.5939 13.0548 27.1073 8.1228 24.3625 8.1228C25.3273 10.323 25.9206 15.503 24.3625 18.0248C22.5883 20.8978 22.3047 28.742 23.1947 32.8955H28.8316C26.8142 27.1696 28.0721 22.5485 29.3324 17.8017Z" fill="#C790F1"/>
<path d="M14.5354 22.5485C23.6957 14.9464 18.874 8.34592 12.8301 7.08563C21.359 0.594293 23.3491 13.5129 21.842 17.9132C19.2823 20.6581 14.5354 22.5485 14.5354 22.5485Z" fill="#BCA4EB"/>
<path d="M23.8998 32.8766H16.0378C14.1509 24.8544 20.5425 19.5118 20.9698 13.5307C21.4444 6.73082 16.5314 5.4729 16.5314 5.4729C14.965 5.86452 17.73 6.9563 14.6564 6.9563L13.8495 5.23556L13.0342 3.89457C14.9804 3.36055 17.5935 2.91316 20.5805 4.37756C24.2593 6.179 27.4077 10.8903 26.1438 15.7249C24.8824 20.5466 21.8966 24.0225 23.8998 32.8766Z" fill="#5092FF"/>
<path d="M23.8997 32.8765H22.2228C21.8288 31.6898 21.5013 29.7816 21.5452 27.5553C21.6117 24.1162 22.3546 22.2091 24.105 17.7103L24.6603 16.2815C26.3811 11.8313 23.819 7.3811 22.6572 5.89771L22.853 5.92619C25.4139 8.2213 27.1347 11.9357 26.1437 15.7249C25.8388 16.8891 25.4341 17.9749 25.0223 19.0762C23.7311 22.539 22.3807 26.1609 23.8997 32.8777V32.8765ZM29.3325 17.8017C29.9614 15.4365 29.4108 13.0251 28.3593 11.2011H28.2941C28.3534 11.5358 28.4305 11.8906 28.5124 12.2633C28.8732 13.9128 29.3099 15.9065 28.554 18.0248L28.5492 18.0366C27.5714 20.7756 25.6251 26.225 26.1058 29.2986C26.3609 30.9244 26.8451 32.2416 27.1347 32.8955H28.8317C26.8309 27.2171 28.0508 22.6257 29.3016 17.9191L29.3325 17.8017Z" fill="#8D65C5"/>
<path d="M15.3328 7.99345C13.1255 8.29013 12.5036 7.158 12.366 5.08124C12.2295 3.00449 12.2627 2.39927 12.2627 2.39927C12.2627 1.99578 12.7493 1.79404 13.0341 2.07885C13.0341 2.07885 16.9265 5.15601 17.0938 6.26796C17.2612 7.3811 16.2513 7.87003 15.3328 7.99345Z" fill="#EFD5FF"/>
<path d="M11.0868 11.5347C10.772 11.5347 10.4702 11.6597 10.2476 11.8822C10.0251 12.1048 9.90004 12.4066 9.90004 12.7214V13.9081C9.90004 14.2228 10.0251 14.5247 10.2476 14.7472C10.4702 14.9698 10.772 15.0948 11.0868 15.0948C11.4015 15.0948 11.7033 14.9698 11.9259 14.7472C12.1484 14.5247 12.2735 14.2228 12.2735 13.9081V12.7214C12.2735 12.4066 12.1484 12.1048 11.9259 11.8822C11.7033 11.6597 11.4015 11.5347 11.0868 11.5347ZM2.67294 21.3856C2.31693 21.7416 1.72357 21.7416 1.36755 21.3856L2.67294 20.0802C3.02896 20.4481 3.02896 21.0296 2.67294 21.3856ZM7.15517 24.2527L4.94313 24.7345C5.39897 24.5559 5.77932 24.2257 6.02012 23.7994C6.26092 23.3731 6.34745 22.8769 6.26513 22.3943C6.2472 22.314 6.24578 22.2308 6.26096 22.1499C6.27614 22.069 6.30761 21.992 6.35346 21.9236C6.39931 21.8552 6.45857 21.7969 6.52766 21.7521C6.59675 21.7073 6.67421 21.677 6.75536 21.6631C6.8365 21.6492 6.91963 21.6519 6.99969 21.6711C7.07976 21.6902 7.15509 21.7255 7.22112 21.7747C7.28714 21.8239 7.34248 21.8859 7.38377 21.9572C7.42507 22.0284 7.45146 22.1073 7.46134 22.189C7.58713 22.9188 7.4649 23.6368 7.15517 24.2527Z" fill="#1C1C1C"/>
<path d="M55.344 14.832V28.224H51.24V26.4C50.824 26.992 50.256 27.472 49.536 27.84C48.832 28.192 48.048 28.368 47.184 28.368C46.16 28.368 45.256 28.144 44.472 27.696C43.688 27.232 43.08 26.568 42.648 25.704C42.216 24.84 42 23.824 42 22.656V14.832H46.08V22.104C46.08 23 46.312 23.696 46.776 24.192C47.24 24.688 47.864 24.936 48.648 24.936C49.448 24.936 50.08 24.688 50.544 24.192C51.008 23.696 51.24 23 51.24 22.104V14.832H55.344Z" fill="white"/>
<path d="M66.4519 14.688C68.0199 14.688 69.2679 15.2 70.1959 16.224C71.1399 17.232 71.6119 18.624 71.6119 20.4V28.224H67.5319V20.952C67.5319 20.056 67.2999 19.36 66.8359 18.864C66.3719 18.368 65.7479 18.12 64.9639 18.12C64.1799 18.12 63.5559 18.368 63.0919 18.864C62.6279 19.36 62.3959 20.056 62.3959 20.952V28.224H58.2919V14.832H62.3959V16.608C62.8119 16.016 63.3719 15.552 64.0759 15.216C64.7799 14.864 65.5719 14.688 66.4519 14.688Z" fill="white"/>
<path d="M76.5278 13.44C75.8078 13.44 75.2158 13.232 74.7518 12.816C74.3037 12.384 74.0798 11.856 74.0798 11.232C74.0798 10.592 74.3037 10.064 74.7518 9.648C75.2158 9.216 75.8078 9 76.5278 9C77.2318 9 77.8077 9.216 78.2557 9.648C78.7197 10.064 78.9518 10.592 78.9518 11.232C78.9518 11.856 78.7197 12.384 78.2557 12.816C77.8077 13.232 77.2318 13.44 76.5278 13.44ZM78.5677 14.832V28.224H74.4637V14.832H78.5677Z" fill="white"/>
<path d="M80.7259 21.528C80.7259 20.136 81.0059 18.92 81.5659 17.88C82.1419 16.84 82.9339 16.04 83.9419 15.48C84.9659 14.92 86.1339 14.64 87.4459 14.64C89.1259 14.64 90.5259 15.08 91.6459 15.96C92.7819 16.84 93.5259 18.08 93.8779 19.68H89.5099C89.1419 18.656 88.4299 18.144 87.3739 18.144C86.6219 18.144 86.0219 18.44 85.5739 19.032C85.1259 19.608 84.9019 20.44 84.9019 21.528C84.9019 22.616 85.1259 23.456 85.5739 24.048C86.0219 24.624 86.6219 24.912 87.3739 24.912C88.4299 24.912 89.1419 24.4 89.5099 23.376H93.8779C93.5259 24.944 92.7819 26.176 91.6459 27.072C90.5099 27.968 89.1099 28.416 87.4459 28.416C86.1339 28.416 84.9659 28.136 83.9419 27.576C82.9339 27.016 82.1419 26.216 81.5659 25.176C81.0059 24.136 80.7259 22.92 80.7259 21.528Z" fill="white"/>
<path d="M102.169 28.416C100.857 28.416 99.6731 28.136 98.6171 27.576C97.5771 27.016 96.7531 26.216 96.1451 25.176C95.5531 24.136 95.2571 22.92 95.2571 21.528C95.2571 20.152 95.5611 18.944 96.1691 17.904C96.7771 16.848 97.6091 16.04 98.6651 15.48C99.7211 14.92 100.905 14.64 102.217 14.64C103.529 14.64 104.713 14.92 105.769 15.48C106.825 16.04 107.657 16.848 108.265 17.904C108.873 18.944 109.177 20.152 109.177 21.528C109.177 22.904 108.865 24.12 108.241 25.176C107.633 26.216 106.793 27.016 105.721 27.576C104.665 28.136 103.481 28.416 102.169 28.416ZM102.169 24.864C102.953 24.864 103.617 24.576 104.161 24C104.721 23.424 105.001 22.6 105.001 21.528C105.001 20.456 104.729 19.632 104.185 19.056C103.657 18.48 103.001 18.192 102.217 18.192C101.417 18.192 100.753 18.48 100.225 19.056C99.6971 19.616 99.4331 20.44 99.4331 21.528C99.4331 22.6 99.6891 23.424 100.201 24C100.729 24.576 101.385 24.864 102.169 24.864Z" fill="white"/>
<path d="M115.458 17.064C115.938 16.328 116.538 15.752 117.258 15.336C117.978 14.904 118.778 14.688 119.658 14.688V19.032H118.53C117.506 19.032 116.738 19.256 116.226 19.704C115.714 20.136 115.458 20.904 115.458 22.008V28.224H111.354V14.832H115.458V17.064Z" fill="white"/>
<path d="M129.78 14.688C131.348 14.688 132.596 15.2 133.524 16.224C134.468 17.232 134.94 18.624 134.94 20.4V28.224H130.86V20.952C130.86 20.056 130.628 19.36 130.164 18.864C129.7 18.368 129.076 18.12 128.292 18.12C127.508 18.12 126.884 18.368 126.42 18.864C125.956 19.36 125.724 20.056 125.724 20.952V28.224H121.62V14.832H125.724V16.608C126.14 16.016 126.7 15.552 127.404 15.216C128.108 14.864 128.9 14.688 129.78 14.688Z" fill="white"/>
<path d="M139.856 13.44C139.136 13.44 138.544 13.232 138.08 12.816C137.632 12.384 137.408 11.856 137.408 11.232C137.408 10.592 137.632 10.064 138.08 9.648C138.544 9.216 139.136 9 139.856 9C140.56 9 141.136 9.216 141.584 9.648C142.048 10.064 142.28 10.592 142.28 11.232C142.28 11.856 142.048 12.384 141.584 12.816C141.136 13.232 140.56 13.44 139.856 13.44ZM141.896 14.832V28.224H137.792V14.832H141.896Z" fill="white"/>
<path d="M150.966 28.416C149.654 28.416 148.47 28.136 147.414 27.576C146.374 27.016 145.55 26.216 144.942 25.176C144.35 24.136 144.054 22.92 144.054 21.528C144.054 20.152 144.358 18.944 144.966 17.904C145.574 16.848 146.406 16.04 147.462 15.48C148.518 14.92 149.702 14.64 151.014 14.64C152.326 14.64 153.51 14.92 154.566 15.48C155.622 16.04 156.454 16.848 157.062 17.904C157.67 18.944 157.974 20.152 157.974 21.528C157.974 22.904 157.662 24.12 157.038 25.176C156.43 26.216 155.59 27.016 154.518 27.576C153.462 28.136 152.278 28.416 150.966 28.416ZM150.966 24.864C151.75 24.864 152.414 24.576 152.958 24C153.518 23.424 153.798 22.6 153.798 21.528C153.798 20.456 153.526 19.632 152.982 19.056C152.454 18.48 151.798 18.192 151.014 18.192C150.214 18.192 149.55 18.48 149.022 19.056C148.494 19.616 148.23 20.44 148.23 21.528C148.23 22.6 148.486 23.424 148.998 24C149.526 24.576 150.182 24.864 150.966 24.864Z" fill="white"/>
<path d="M162.071 28.416C161.351 28.416 160.759 28.208 160.295 27.792C159.847 27.36 159.623 26.832 159.623 26.208C159.623 25.568 159.847 25.032 160.295 24.6C160.759 24.168 161.351 23.952 162.071 23.952C162.775 23.952 163.351 24.168 163.799 24.6C164.263 25.032 164.495 25.568 164.495 26.208C164.495 26.832 164.263 27.36 163.799 27.792C163.351 28.208 162.775 28.416 162.071 28.416Z" fill="white"/>
<path d="M166.109 21.504C166.109 20.128 166.365 18.92 166.877 17.88C167.405 16.84 168.117 16.04 169.013 15.48C169.909 14.92 170.909 14.64 172.013 14.64C172.893 14.64 173.693 14.824 174.413 15.192C175.149 15.56 175.725 16.056 176.141 16.68V10.464H180.245V28.224H176.141V26.304C175.757 26.944 175.205 27.456 174.485 27.84C173.781 28.224 172.957 28.416 172.013 28.416C170.909 28.416 169.909 28.136 169.013 27.576C168.117 27 167.405 26.192 166.877 25.152C166.365 24.096 166.109 22.88 166.109 21.504ZM176.141 21.528C176.141 20.504 175.853 19.696 175.277 19.104C174.717 18.512 174.029 18.216 173.213 18.216C172.397 18.216 171.701 18.512 171.125 19.104C170.565 19.68 170.285 20.48 170.285 21.504C170.285 22.528 170.565 23.344 171.125 23.952C171.701 24.544 172.397 24.84 173.213 24.84C174.029 24.84 174.717 24.544 175.277 23.952C175.853 23.36 176.141 22.552 176.141 21.528Z" fill="white"/>
<path d="M195.838 21.312C195.838 21.696 195.814 22.096 195.766 22.512H186.478C186.542 23.344 186.806 23.984 187.27 24.432C187.75 24.864 188.334 25.08 189.022 25.08C190.046 25.08 190.758 24.648 191.158 23.784H195.526C195.302 24.664 194.894 25.456 194.302 26.16C193.726 26.864 192.998 27.416 192.118 27.816C191.238 28.216 190.254 28.416 189.166 28.416C187.854 28.416 186.686 28.136 185.662 27.576C184.638 27.016 183.838 26.216 183.262 25.176C182.686 24.136 182.398 22.92 182.398 21.528C182.398 20.136 182.678 18.92 183.238 17.88C183.814 16.84 184.614 16.04 185.638 15.48C186.662 14.92 187.838 14.64 189.166 14.64C190.462 14.64 191.614 14.912 192.622 15.456C193.63 16 194.414 16.776 194.974 17.784C195.55 18.792 195.838 19.968 195.838 21.312ZM191.638 20.232C191.638 19.528 191.398 18.968 190.918 18.552C190.438 18.136 189.838 17.928 189.118 17.928C188.43 17.928 187.846 18.128 187.366 18.528C186.902 18.928 186.614 19.496 186.502 20.232H191.638Z" fill="white"/>
<path d="M204.027 24.384L206.931 14.832H211.299L206.547 28.224H201.483L196.731 14.832H201.123L204.027 24.384Z" fill="white"/>
</svg>
